<svg version="1" xmlns="http://www.w3.org/2000/svg" width="682.667" height="682.667" viewBox="0 0 512.000000 512.000000"><path d="M237.9.4c-.2.2-3.5.6-7.4 1C208.3 3.3 181 10 160 18.7c-10.1 4.1-31.2 14.6-35.1 17.3-1.5 1.1-3 2-3.3 2-1 0-21.7 14.9-27.6 19.9-16.1 13.5-30.4 28.3-42.1 43.6-28.1 36.8-45.5 81-50.6 128.5-1.5 13.6-.8 50.3 1.1 61.5.3 1.6.8 4.3 1 6 1.6 11.7 9 39.9 12.6 48 .5 1.1 2.1 4.9 3.6 8.5 16.7 41.3 46.3 79.3 83.2 106.9 5 3.8 8.9 7.1 8.7 7.3-.3.3.1.5.7.5.7 0 5.1 2.4 9.7 5.3 7.7 4.7 31 17 32.5 17 .3 0 2.5.9 4.9 1.9 10.8 4.9 29.2 10.6 43.7 13.5 11.1 2.2 12.9 2.5 19.5 3.2 3.3.4 6.4.9 6.9 1.2.5.3 10.4.6 22 .8 30.8.3 51.4-2.5 79.1-10.8 73.1-21.9 133.7-77.3 162.8-148.8 6.3-15.5 13.3-40.3 15.1-53 .3-2.5.8-5.4 1-6.6 3-15.1 2.8-54.5-.3-74.9-2.6-16.9-9-41.5-13.6-52-.7-1.7-2.6-6.1-4.1-9.9-1.5-3.8-4.9-11-7.6-16-2.7-5-5.6-10.7-6.6-12.6-.9-1.9-2-3.7-2.3-4-.4-.3-2.1-3-4-6-1.8-3-3.6-5.7-3.9-6-.3-.3-1.7-2.1-3-4-10.7-15.9-31.2-37.5-48.7-51.3-6.6-5.2-28.9-20.7-29.8-20.7-.2 0-4.5-2.2-9.5-4.9-20.7-11.3-52.1-22.4-72-25.5-1.9-.3-4.4-.8-5.6-1-1.2-.2-4.5-.7-7.4-1.1-2.9-.4-6.2-.9-7.4-1.2-2.4-.5-45.2-1.4-45.7-.9zM279 81.8c2.5.6 5.9 1.3 7.5 1.6 7.9 1.4 25.2 8.5 32.5 13.3 7.1 4.7 8.6 5.9 14.8 11.8 15.9 14.9 23.2 33.9 23.5 60.8.1 11.1-.7 25.4-1.7 31.7-1.7 9.7-1.7 10 .5 10 3.6 0 7.6 2.8 9.5 6.7 1.8 3.9 2.5 16.4 1.2 22.8-1.7 8.2-6.3 17.5-11.5 23.1-2 2.1-6.7 10-10.5 17.4-20.6 40.1-42.4 61.4-70.2 68.5-11.8 3-28.2 2.8-39.6-.5-27-7.7-51.6-33.3-70-72.5-2.1-4.4-5.6-9.9-7.7-12.2-14-14.9-17.7-45.9-6.2-51.8 1.5-.8 3.7-1.5 4.9-1.5 1.6 0 1.9-.5 1.6-2.3-2.5-12.1-3.8-38.4-2.5-50.2 1.3-10.7 4-22.3 5.9-25 .4-.6 1.1-2.1 1.5-3.5 2.3-7.6 14.6-22.1 25-29.5 14.3-10.1 33.1-17.4 49.5-19.2 3-.3 5.7-.7 5.9-.9.9-.8 32 .4 36.1 1.4zm-87.8 295.7c-.6 19.7 2 28.6 15.2 52.8 4.9 9 18 26.6 25.7 34.7 5.7 5.9 14.7 13.7 19.5 17l4.6 3.1 7.2-5.4c11.9-9 26.3-24.7 35.1-38.2 2.1-3.3 4.1-6.2 4.4-6.5 1.9-1.7 11.9-22.3 14.7-30.5 2.6-7.4 2.8-9.2 2.9-23.8 0-10.9.3-15.6 1.1-15.3 2.8 1.1 24.6 8 39.9 12.6 28.5 8.7 44.6 15.3 57.2 23.6 6.3 4.1 15.3 12.6 15.3 14.3 0 1.3-12.5 14.2-20.5 21.1-9.7 8.4-31.2 24-33.1 24-.4 0-1.5.6-2.3 1.4-2.7 2.4-26.7 14.1-37.1 18.1-5.8 2.2-26.1 8.5-26.9 8.3-.3-.1-2.4.4-4.6 1-20.1 5.6-59.1 7.6-84 4.1-20.8-2.9-36.7-6.8-53.6-13.3-13.7-5.2-34.9-15.4-34.9-16.8 0-.5-.3-.7-.8-.4-1 .6-23.2-14.1-23.2-15.4 0-.6-.4-.9-.8-.6-.5.3-1.9-.5-3.3-1.7-1.3-1.2-6.2-5.4-10.9-9.4-10.2-8.7-20-18.7-20-20.6 0-1.7 7.7-8.8 15.1-13.8 11.8-8.1 33.1-16.8 62.4-25.5 5-1.4 14.9-4.6 22-6.9 7.2-2.4 13.2-4.4 13.5-4.4.3-.1.3 5.5.2 12.4zm81.4-10c1.9 1.4 4.5 4.1 6 6.1 3.5 4.5 2.9 5.8-7 16.2l-7.6 7.9 8.9 22 8.8 22.1-3.2 4.3c-3.6 5.1-18.4 18.9-20.2 18.9-.6 0-1.3.5-1.5 1.2-.9 2.6-16-10.1-22.7-19l-3.8-5.2 8.8-22.2 8.9-22.2-5.5-4.9c-5.9-5.2-11.5-12.6-11.5-15.1 0-.9 2.5-4 5.6-7.1l5.6-5.5h13.6c12.9 0 13.7.1 16.8 2.5z"/><path d="M204.3 145.2c-11.9 4-23.2 14.6-29.8 27.8-2.7 5.4-2.8 5.7-2.1 18.5.3 7.1 1 14.8 1.5 17 .5 2.2 1.2 5.7 1.5 7.7.3 2 1.5 7.7 2.5 12.5 1.1 4.8 1.9 8.9 1.7 9-.1.2-1.3-2.3-2.6-5.5-3-7.3-7.5-13.9-10-14.7-2.6-.8-6.5 1.9-8 5.6-1.1 2.6-.9 11.1.3 16.9.9 4.2 6.3 13.4 9.8 16.7 2.1 2 4.2 4.6 4.5 5.8.8 2.3 11.9 24.9 15.4 31 10 17.9 23.1 31.9 35 37.7 10.5 5 19.2 7 31.9 7 28.1 0 47.1-11.6 63.4-38.5 1.8-3.1 3.6-5.4 3.9-5.1.3.3.6-.1.5-.8-.1-.7 3.4-8.5 7.8-17.3 5.3-10.9 9.4-17.7 12.6-21.3 8-8.8 12.3-25.6 8.5-33-4.6-8.9-11.6-5.1-17.6 9.6-2.1 5.2-2.5 4-.9-2.8 1.4-5.9 1.6-7.1 2.3-11.6.7-4.4 1.7-9.9 2.3-12.9.2-1.1.6-5 .8-8.8l.5-6.7-4.7-.1c-2.7 0-6.4-.2-8.3-.4-1.9-.1-6.7-.6-10.5-.9-9.2-.7-15.2-1.6-28.5-4.2-26.6-5.2-48.2-16.2-69.6-35.5-2.9-2.5-5.9-4.6-6.8-4.6-.9 0-4.2.9-7.3 1.9z"/></svg>